<svg xmlns="http://www.w3.org/2000/svg" version="1.1" viewBox="0.00 0.00 500.00 500.00">
<g stroke-width="2.00" fill="none" stroke-linecap="butt">
<path stroke="#8d7356" vector-effect="non-scaling-stroke" d="   M 344.90 154.32   C 337.95 158.13 333.93 151.77 331.61 145.77   Q 331.42 145.30 331.57 144.82   Q 332.16 142.94 331.45 141.38   Q 331.16 140.73 330.45 140.74   L 328.53 140.75   A 1.04 1.03 69.9 0 1 327.74 140.38   L 324.93 137.00" fill="#000000"/>
<path stroke="#8d7356" vector-effect="non-scaling-stroke" d="   M 318.84 130.23   Q 320.68 126.21 324.53 123.59" fill="#000000"/>
<path stroke="#0998a8" vector-effect="non-scaling-stroke" d="   M 338.80 123.33   C 338.34 129.12 342.06 134.12 348.07 134.02   A 0.95 0.95 0.0 0 0 348.83 132.51   C 345.36 127.70 341.10 124.90 342.99 118.05" fill="#000000"/>
<path stroke="#8d7356" vector-effect="non-scaling-stroke" d="   M 344.76 159.26   Q 338.46 160.08 332.00 162.47" fill="#000000"/>
<path stroke="#7f9aba" vector-effect="non-scaling-stroke" d="   M 332.00 162.47   Q 332.22 160.97 331.98 159.88   Q 331.76 158.86 330.48 158.01   Q 328.71 156.84 327.07 155.81" fill="#000000"/>
<path stroke="#c9bbba" vector-effect="non-scaling-stroke" d="   M 327.07 155.81   Q 326.50 153.08 324.84 151.09" fill="#000000"/>
<path stroke="#0e3c69" vector-effect="non-scaling-stroke" d="   M 349.82 166.64   L 328.92 166.34" fill="#000000"/>
<path stroke="#58769a" vector-effect="non-scaling-stroke" d="   M 328.92 166.34   L 329.01 164.60" fill="#000000"/>
<path stroke="#0998a8" vector-effect="non-scaling-stroke" d="   M 332.00 162.47   Q 331.64 163.62 329.01 164.60" fill="#000000"/>
<path stroke="#0998a8" vector-effect="non-scaling-stroke" d="   M 329.01 164.60   Q 325.05 164.10 321.06 165.17" fill="#000000"/>
<path stroke="#0998a8" vector-effect="non-scaling-stroke" d="   M 321.06 165.17   Q 316.06 162.84 311.68 162.92" fill="#000000"/>
<path stroke="#0998a8" vector-effect="non-scaling-stroke" d="   M 327.07 155.81   L 298.90 156.08" fill="#000000"/>
<path stroke="#4b84ce" vector-effect="non-scaling-stroke" d="   M 321.06 165.17   Q 324.13 166.58 324.99 166.83   Q 327.02 167.42 328.92 166.34" fill="#000000"/>
<path stroke="#4b84ce" vector-effect="non-scaling-stroke" d="   M 355.02 216.99   Q 353.61 216.64 352.59 216.94   Q 352.07 217.10 352.10 217.64   L 352.30 220.58" fill="#000000"/>
<path stroke="#1b4775" vector-effect="non-scaling-stroke" d="   M 352.30 220.58   Q 351.77 220.11 351.06 220.28   Q 350.57 220.40 350.41 219.92   L 350.28 219.51" fill="#000000"/>
<path stroke="#4b84ce" vector-effect="non-scaling-stroke" d="   M 350.28 219.51   Q 350.41 218.07 350.02 217.39   Q 349.70 216.82 349.02 216.83   Q 339.50 216.91 330.56 216.88   A 0.96 0.95 -5.7 0 0 329.62 218.02   L 330.04 220.06" fill="#000000"/>
<path stroke="#1b4775" vector-effect="non-scaling-stroke" d="   M 330.04 220.06   Q 328.99 220.03 328.46 220.34   Q 328.06 220.57 328.02 220.11   L 327.79 217.31" fill="#000000"/>
<path stroke="#4b84ce" vector-effect="non-scaling-stroke" d="   M 327.79 217.31   Q 324.95 216.83 323.25 216.87   Q 320.90 216.94 320.31 215.03" fill="#000000"/>
<path stroke="#80a4ce" vector-effect="non-scaling-stroke" d="   M 320.31 215.03   L 316.67 187.08   Q 316.57 186.25 316.02 185.60   L 310.30 178.79   A 1.25 1.25 0.0 0 1 310.01 177.82   L 310.46 173.99" fill="#000000"/>
<path stroke="#c9bbba" vector-effect="non-scaling-stroke" d="   M 295.79 151.23   Q 295.07 154.15 298.90 156.08" fill="#000000"/>
<path stroke="#7f9aba" vector-effect="non-scaling-stroke" d="   M 298.90 156.08   Q 305.12 160.70 311.68 162.92" fill="#000000"/>
<path stroke="#80808a" vector-effect="non-scaling-stroke" d="   M 311.68 162.92   L 310.68 172.00" fill="#000000"/>
<path stroke="#c9bbba" vector-effect="non-scaling-stroke" d="   M 310.68 172.00   Q 302.79 169.15 296.68 164.70" fill="#000000"/>
<path stroke="#7f9aba" vector-effect="non-scaling-stroke" d="   M 296.68 164.70   Q 290.83 160.88 287.83 155.81" fill="#000000"/>
<path stroke="#c9bbba" vector-effect="non-scaling-stroke" d="   M 287.83 155.81   Q 288.71 154.22 287.10 151.11" fill="#000000"/>
<path stroke="#80808a" vector-effect="non-scaling-stroke" d="   M 365.22 176.53   Q 363.48 171.73 363.43 167.11" fill="#000000"/>
<path stroke="#cadfff" vector-effect="non-scaling-stroke" d="   M 320.31 215.03   Q 319.82 218.09 320.36 220.91" fill="#000000"/>
<path stroke="#9aa2a6" vector-effect="non-scaling-stroke" d="   M 320.36 220.91   Q 309.51 248.58 304.07 276.75   Q 301.84 288.34 302.11 300.67" fill="#000000"/>
<path stroke="#0998a8" vector-effect="non-scaling-stroke" d="   M 358.69 390.88   Q 356.32 390.94 354.89 391.99" fill="#000000"/>
<path stroke="#283a41" vector-effect="non-scaling-stroke" d="   M 354.89 391.99   Q 352.01 388.40 348.66 386.46" fill="#000000"/>
<path stroke="#997e61" vector-effect="non-scaling-stroke" d="   M 348.66 386.46   L 345.51 381.07" fill="#000000"/>
<path stroke="#0998a8" vector-effect="non-scaling-stroke" d="   M 345.51 381.07   Q 346.89 380.94 347.86 379.57   Q 348.18 379.12 348.03 378.58   L 347.14 375.33   A 1.15 1.14 -19.6 0 0 345.57 374.59   L 333.83 379.84" fill="#000000"/>
<path stroke="#6482a5" vector-effect="non-scaling-stroke" d="   M 350.28 219.51   Q 350.53 220.74 349.75 220.73   Q 341.61 220.64 333.48 220.71   C 332.30 220.72 331.07 221.40 330.04 220.06" fill="#000000"/>
<path stroke="#6482a5" vector-effect="non-scaling-stroke" d="   M 327.79 217.31   Q 327.97 218.88 327.65 220.08   Q 327.52 220.60 326.99 220.62   L 320.36 220.91" fill="#000000"/>
<path stroke="#6482a5" vector-effect="non-scaling-stroke" d="   M 356.47 220.67   L 352.30 220.58" fill="#000000"/>
<path stroke="#0998a8" vector-effect="non-scaling-stroke" d="   M 287.83 155.81   Q 200.68 155.88 113.25 155.84   Q 111.69 155.84 110.15 156.42   A 1.37 1.36 3.7 0 0 109.44 157.04   C 107.81 160.05 109.10 164.69 113.00 164.70   Q 170.16 164.85 296.68 164.70" fill="#000000"/>
<path stroke="#4b84ce" vector-effect="non-scaling-stroke" d="   M 310.68 172.00   Q 310.79 172.83 310.46 173.99" fill="#000000"/>
<path stroke="#cadfff" vector-effect="non-scaling-stroke" d="   M 310.46 173.99   L 118.80 174.00   Q 115.53 174.00 115.78 177.26   Q 120.02 232.78 124.21 295.10   Q 124.34 297.15 124.73 298.19   Q 125.64 300.65 129.25 300.65   Q 215.72 300.66 302.11 300.67" fill="#000000"/>
<path stroke="#6482a5" vector-effect="non-scaling-stroke" d="   M 302.11 300.67   Q 302.60 308.02 304.92 314.99" fill="#000000"/>
<path stroke="#7f9aba" vector-effect="non-scaling-stroke" d="   M 356.92 396.88   L 350.72 396.98" fill="#000000"/>
<path stroke="#8d7356" vector-effect="non-scaling-stroke" d="   M 348.66 386.46   L 341.61 391.66" fill="#000000"/>
<path stroke="#ffdbbb" vector-effect="non-scaling-stroke" d="   M 341.61 391.66   L 338.45 385.36   Q 338.22 384.90 337.73 384.77   L 337.27 384.65" fill="#000000"/>
<path stroke="#7f9aba" vector-effect="non-scaling-stroke" d="   M 345.51 381.07   L 337.27 384.65" fill="#000000"/>
<path stroke="#80beff" vector-effect="non-scaling-stroke" d="   M 337.27 384.65   L 336.67 385.20" fill="#000000"/>
<path stroke="#0998a8" vector-effect="non-scaling-stroke" d="   M 336.67 385.20   L 335.00 385.29" fill="#000000"/>
<path stroke="#0998a8" vector-effect="non-scaling-stroke" d="   M 354.89 391.99   Q 355.27 393.53 353.64 394.65   Q 352.12 395.69 350.72 396.98" fill="#000000"/>
<path stroke="#8d7356" vector-effect="non-scaling-stroke" d="   M 350.72 396.98   Q 349.58 397.50 349.31 397.85" fill="#000000"/>
<path stroke="#58769a" vector-effect="non-scaling-stroke" d="   M 339.02 396.08   C 340.31 395.20 339.50 393.35 340.93 392.17" fill="#000000"/>
<path stroke="#8d7356" vector-effect="non-scaling-stroke" d="   M 357.23 406.65   L 348.35 406.68" fill="#000000"/>
<path stroke="#8d979a" vector-effect="non-scaling-stroke" d="   M 341.61 391.66   L 340.93 392.17" fill="#000000"/>
<path stroke="#cadfff" vector-effect="non-scaling-stroke" d="   M 340.93 392.17   Q 339.19 391.62 337.72 390.51" fill="#000000"/>
<path stroke="#cadfff" vector-effect="non-scaling-stroke" d="   M 336.39 386.21   Q 336.83 385.93 336.67 385.20" fill="#000000"/>
<path stroke="#58769a" vector-effect="non-scaling-stroke" d="   M 347.00 406.52   Q 346.10 407.46 344.96 407.98" fill="#000000"/>
<path stroke="#80beff" vector-effect="non-scaling-stroke" d="   M 118.49 160.24   A 2.04 2.04 0.0 0 0 116.45 158.20   A 2.04 2.04 0.0 0 0 114.41 160.24   A 2.04 2.04 0.0 0 0 116.45 162.28   A 2.04 2.04 0.0 0 0 118.49 160.24" fill="#000000"/>
<path stroke="#80beff" vector-effect="non-scaling-stroke" d="   M 125.38 160.21   A 2.05 2.05 0.0 0 0 123.33 158.16   A 2.05 2.05 0.0 0 0 121.28 160.21   A 2.05 2.05 0.0 0 0 123.33 162.26   A 2.05 2.05 0.0 0 0 125.38 160.21" fill="#000000"/>
<path stroke="#80beff" vector-effect="non-scaling-stroke" d="   M 132.22 160.25   A 2.05 2.05 0.0 0 0 130.17 158.20   A 2.05 2.05 0.0 0 0 128.12 160.25   A 2.05 2.05 0.0 0 0 130.17 162.30   A 2.05 2.05 0.0 0 0 132.22 160.25" fill="#000000"/>
<path stroke="#80beff" vector-effect="non-scaling-stroke" d="   M 205.31 201.89   A 0.56 0.56 0.0 0 0 204.75 202.49   L 208.54 254.78   A 0.56 0.56 0.0 0 0 209.10 255.30   L 246.50 255.34   A 0.56 0.56 0.0 0 0 247.06 254.74   L 243.71 208.44   A 0.56 0.56 0.0 0 0 243.44 208.00   L 233.44 201.96   A 0.56 0.56 0.0 0 0 233.15 201.88   L 205.31 201.89" fill="#000000"/>
<path stroke="#80beff" vector-effect="non-scaling-stroke" d="   M 205.36 269.43   C 206.54 270.88 207.45 273.58 209.78 273.10   Q 210.35 272.98 210.31 272.39   L 209.89 265.87   Q 209.83 264.92 208.88 265.01   L 208.21 265.07   A 0.85 0.85 0.0 0 0 207.45 266.08   Q 207.68 267.25 207.61 268.31   Q 207.55 269.33 207.04 268.45   Q 206.16 266.95 204.94 265.85   Q 202.16 263.33 202.39 267.08   L 202.71 272.30   A 0.85 0.84 -1.4 0 0 203.55 273.09   L 204.49 273.09   A 0.56 0.56 0.0 0 0 205.05 272.50   L 204.92 269.60   Q 204.89 268.84 205.36 269.43" fill="#000000"/>
<path stroke="#80beff" vector-effect="non-scaling-stroke" d="   M 218.5972 272.0088   A 4.35 4.06 42.5 0 0 218.1329 266.0767   A 4.35 4.06 42.5 0 0 212.1828 266.1312   A 4.35 4.06 42.5 0 0 212.6471 272.0633   A 4.35 4.06 42.5 0 0 218.5972 272.0088" fill="#000000"/>
<path stroke="#80beff" vector-effect="non-scaling-stroke" d="   M 224.34 265.42   L 224.46 272.86   A 0.27 0.27 0.0 0 0 224.73 273.12   L 228.34 273.07   A 3.57 3.42 89.1 0 0 231.71 269.44   L 231.69 268.60   A 3.57 3.42 89.1 0 0 228.22 265.09   L 224.61 265.14   A 0.27 0.27 0.0 0 0 224.34 265.42" fill="#000000"/>
<path stroke="#80beff" vector-effect="non-scaling-stroke" d="   M 237.61 272.33   Q 238.47 273.28 239.81 273.08   A 0.56 0.56 0.0 0 0 240.25 272.29   L 237.22 265.58   Q 236.96 265.00 236.32 265.03   L 234.85 265.09   Q 234.21 265.12 234.03 265.73   L 232.15 272.24   Q 231.97 272.90 232.63 273.04   Q 233.88 273.32 234.80 272.32   A 1.90 1.90 0.0 0 1 237.61 272.33" fill="#000000"/>
<path stroke="#80beff" vector-effect="non-scaling-stroke" d="   M 241.90 267.81   L 242.34 272.27   Q 242.42 273.13 243.28 273.13   L 243.67 273.13   Q 244.84 273.12 244.76 271.96   L 244.49 268.00   A 0.84 0.84 0.0 0 1 245.46 267.12   Q 246.79 267.33 247.02 265.97   A 0.78 0.78 0.0 0 0 246.26 265.06   L 240.21 265.01   A 0.99 0.98 -18.6 0 0 239.42 266.59   Q 239.94 267.26 240.86 267.05   A 0.86 0.86 0.0 0 1 241.90 267.81" fill="#000000"/>
<path stroke="#80beff" vector-effect="non-scaling-stroke" d="   M 248.71 266.45   C 248.34 268.31 247.59 270.27 247.00 272.04   A 0.87 0.87 0.0 0 0 248.07 273.15   Q 249.26 272.80 250.11 272.04   A 1.23 1.22 -63.6 0 1 251.02 271.73   C 252.51 271.81 253.11 273.31 254.61 273.03   Q 255.37 272.89 255.06 272.18   L 252.35 265.95   A 1.60 1.58 84.7 0 0 251.25 265.03   Q 249.09 264.53 248.71 266.45" fill="#000000"/>
<path stroke="#80beff" vector-effect="non-scaling-stroke" d="   M 236.93 211.02   A 0.44 0.44 0.0 0 1 236.40 210.79   L 232.88 203.26   A 0.44 0.44 0.0 0 0 232.48 203.01   L 206.32 202.98   A 0.44 0.44 0.0 0 0 205.88 203.45   L 209.52 253.86   A 0.44 0.44 0.0 0 0 209.96 254.27   L 245.46 254.10   A 0.44 0.44 0.0 0 0 245.90 253.63   L 242.77 209.70   A 0.44 0.44 0.0 0 0 242.20 209.31   L 236.93 211.02" fill="#000000"/>
<path stroke="#80beff" vector-effect="non-scaling-stroke" d="   M 241.21 208.50   A 0.31 0.31 0.0 0 0 241.27 207.94   L 235.08 204.30   A 0.31 0.31 0.0 0 0 234.64 204.70   L 236.98 209.59   A 0.31 0.31 0.0 0 0 237.36 209.76   L 241.21 208.50" fill="#000000"/>
<path stroke="#80beff" vector-effect="non-scaling-stroke" d="   M 212.7941 221.7149   A 2.21 0.55 131.9 0 0 214.6794 220.4373   A 2.21 0.55 131.9 0 0 215.7459 218.4251   A 2.21 0.55 131.9 0 0 213.8606 219.7027   A 2.21 0.55 131.9 0 0 212.7941 221.7149" fill="#000000"/>
<path stroke="#80beff" vector-effect="non-scaling-stroke" d="   M 238.0417 221.6827   A 2.33 0.59 43.8 0 0 236.7684 219.6442   A 2.33 0.59 43.8 0 0 234.6783 218.4573   A 2.33 0.59 43.8 0 0 235.9516 220.4958   A 2.33 0.59 43.8 0 0 238.0417 221.6827" fill="#000000"/>
<path stroke="#80beff" vector-effect="non-scaling-stroke" d="   M 233.8971 227.8095   A 2.23 2.09 53.8 0 0 234.2665 224.7756   A 2.23 2.09 53.8 0 0 231.2629 224.2105   A 2.23 2.09 53.8 0 0 230.8935 227.2444   A 2.23 2.09 53.8 0 0 233.8971 227.8095" fill="#000000"/>
<path stroke="#80beff" vector-effect="non-scaling-stroke" d="   M 220.5765 227.4900   A 2.27 2.11 39.7 0 0 220.1778 224.4166   A 2.27 2.11 39.7 0 0 217.0835 224.5900   A 2.27 2.11 39.7 0 0 217.4822 227.6634   A 2.27 2.11 39.7 0 0 220.5765 227.4900" fill="#000000"/>
<path stroke="#80beff" vector-effect="non-scaling-stroke" d="   M 239.11 239.15   C 237.50 230.01 215.50 229.24 214.01 239.33   Q 213.99 239.50 214.14 239.58   L 214.40 239.70   Q 214.95 239.97 215.06 239.37   Q 215.81 235.53 220.04 234.19   C 225.57 232.45 236.18 232.59 238.30 239.53   Q 238.32 239.61 238.39 239.65   Q 238.52 239.74 238.68 239.72   A 0.49 0.48 82.3 0 0 239.11 239.15" fill="#000000"/>
<path stroke="#80beff" vector-effect="non-scaling-stroke" d="   M 215.7723 271.3137   A 2.25 1.63 79.7 0 0 216.9737 268.8086   A 2.25 1.63 79.7 0 0 214.9677 266.8863   A 2.25 1.63 79.7 0 0 213.7663 269.3914   A 2.25 1.63 79.7 0 0 215.7723 271.3137" fill="#000000"/>
<path stroke="#80beff" vector-effect="non-scaling-stroke" d="   M 226.69 267.50   L 227.12 270.93   A 0.43 0.43 0.0 0 0 227.60 271.31   L 227.93 271.27   A 1.70 1.46 82.9 0 0 229.17 269.40   L 229.05 268.49   A 1.70 1.46 82.9 0 0 227.40 266.98   L 227.07 267.02   A 0.43 0.43 0.0 0 0 226.69 267.50" fill="#000000"/>
<path stroke="#0998a8" vector-effect="non-scaling-stroke" d="   M 235.03 269.31   A 0.55 0.55 0.0 0 0 235.60 269.98   L 236.33 269.94   Q 237.21 269.89 236.70 269.18   L 235.94 268.10   Q 235.46 267.42 235.27 268.23   L 235.03 269.31" fill="#000000"/>
<path stroke="#0998a8" vector-effect="non-scaling-stroke" d="   M 250.83 268.11   Q 250.47 267.84 250.30 268.25   Q 250.07 268.77 250.09 269.40   Q 250.11 270.09 250.80 270.01   Q 251.05 269.99 251.31 270.05   A 0.43 0.43 0.0 0 0 251.82 269.51   Q 251.57 268.67 250.83 268.11" fill="#000000"/>
</g>
<path fill="#1b2e35" d="   M 344.90 154.32   C 337.95 158.13 333.93 151.77 331.61 145.77   Q 331.42 145.30 331.57 144.82   Q 332.16 142.94 331.45 141.38   Q 331.16 140.73 330.45 140.74   L 328.53 140.75   A 1.04 1.03 69.9 0 1 327.74 140.38   L 324.93 137.00   Q 325.30 135.71 323.37 135.52   Q 321.52 135.34 319.54 135.06   Q 319.04 134.99 319.02 134.49   L 318.84 130.23   Q 320.68 126.21 324.53 123.59   Q 326.39 122.87 328.78 123.53   Q 329.26 123.67 329.75 123.55   Q 334.14 122.46 338.80 123.33   C 338.34 129.12 342.06 134.12 348.07 134.02   A 0.95 0.95 0.0 0 0 348.83 132.51   C 345.36 127.70 341.10 124.90 342.99 118.05   Q 346.97 112.31 353.94 113.13   C 356.99 113.48 360.90 115.03 361.08 118.52   C 361.43 125.15 354.87 131.94 359.92 137.74   A 1.90 1.90 0.0 0 0 362.92 137.57   Q 364.93 134.62 363.21 131.66   Q 362.80 130.94 363.49 131.41   Q 367.23 133.94 365.71 137.95   C 364.57 140.97 360.36 147.23 356.38 147.05   Q 355.02 146.99 353.74 146.99   Q 353.23 146.99 352.92 147.39   Q 349.56 151.78 344.90 154.32   Z"/>
<path fill="#0998a8" d="   M 342.99 118.05   C 341.10 124.90 345.36 127.70 348.83 132.51   A 0.95 0.95 0.0 0 1 348.07 134.02   C 342.06 134.12 338.34 129.12 338.80 123.33   Q 339.39 122.79 340.17 120.71   Q 340.77 119.12 342.99 118.05   Z"/>
<path fill="#feb776" d="   M 365.22 176.53   Q 363.48 171.73 363.43 167.11   Q 371.04 162.68 377.57 155.72   Q 377.97 155.30 378.04 154.71   Q 378.33 152.05 377.90 149.51   Q 376.57 141.87 373.32 133.21   Q 372.49 130.99 371.91 124.95   A 0.80 0.80 0.0 0 1 372.36 124.16   L 375.13 122.85   Q 375.73 122.57 376.18 123.04   C 378.00 124.95 379.39 127.30 378.98 130.07   Q 378.73 131.76 378.72 133.51   A 1.86 1.84 -60.3 0 0 378.97 134.44   C 382.08 139.97 387.20 151.25 385.33 157.43   Q 384.69 159.57 382.10 162.44   Q 374.73 170.62 365.22 176.53   Z"/>
<path fill="#feb776" d="   M 324.53 123.59   Q 320.68 126.21 318.84 130.23   Q 317.81 130.20 317.82 131.76   Q 317.82 131.92 317.67 132.22   Q 317.40 132.73 317.47 132.16   Q 318.25 125.45 324.53 123.59   Z"/>
<path fill="#feb776" d="   M 295.79 151.23   Q 295.07 154.15 298.90 156.08   Q 305.12 160.70 311.68 162.92   L 310.68 172.00   Q 302.79 169.15 296.68 164.70   Q 290.83 160.88 287.83 155.81   Q 288.71 154.22 287.10 151.11   Q 293.22 141.05 305.45 136.85   Q 305.98 136.67 306.11 136.12   L 308.20 126.88   A 0.82 0.82 0.0 0 1 309.41 126.35   Q 310.58 127.02 311.89 127.12   Q 313.08 127.21 313.19 128.41   C 313.58 132.72 313.30 137.39 309.34 139.86   Q 303.12 143.74 299.83 146.57   Q 297.99 148.15 295.79 151.23   Z"/>
<path fill="#feb776" d="   M 324.93 137.00   L 327.74 140.38   A 1.04 1.03 69.9 0 0 328.53 140.75   L 330.45 140.74   Q 331.16 140.73 331.45 141.38   Q 332.16 142.94 331.57 144.82   Q 331.42 145.30 331.61 145.77   C 333.93 151.77 337.95 158.13 344.90 154.32   L 344.76 159.26   Q 338.46 160.08 332.00 162.47   Q 332.22 160.97 331.98 159.88   Q 331.76 158.86 330.48 158.01   Q 328.71 156.84 327.07 155.81   Q 326.50 153.08 324.84 151.09   Q 325.11 150.40 324.90 149.69   Q 324.70 149.01 323.99 149.05   Q 322.88 149.12 322.96 148.00   Q 323.00 147.50 323.31 147.10   Q 324.10 146.10 324.23 144.68   A 1.15 1.14 30.4 0 0 324.02 143.88   Q 323.45 143.05 323.47 142.01   A 1.61 1.60 63.2 0 1 323.76 141.12   Q 324.60 139.89 324.58 138.42   Q 324.57 137.91 324.08 137.78   Q 323.91 137.74 323.76 137.66   Q 323.22 137.37 323.82 137.24   L 324.93 137.00   Z"/>
<path fill="#94befe" d="   M 287.10 151.11   Q 288.71 154.22 287.83 155.81   Q 200.68 155.88 113.25 155.84   Q 111.69 155.84 110.15 156.42   A 1.37 1.36 3.7 0 0 109.44 157.04   C 107.81 160.05 109.10 164.69 113.00 164.70   Q 170.16 164.85 296.68 164.70   Q 302.79 169.15 310.68 172.00   Q 310.79 172.83 310.46 173.99   L 118.80 174.00   Q 115.53 174.00 115.78 177.26   Q 120.02 232.78 124.21 295.10   Q 124.34 297.15 124.73 298.19   Q 125.64 300.65 129.25 300.65   Q 215.72 300.66 302.11 300.67   Q 302.60 308.02 304.92 314.99   Q 216.02 315.01 127.51 314.99   Q 121.83 314.99 121.50 314.93   C 118.91 314.50 115.89 312.47 115.07 309.76   Q 114.84 308.98 114.37 308.34   A 1.84 1.83 29.9 0 1 114.02 307.07   Q 114.32 303.65 113.62 300.30   C 112.59 295.44 113.45 290.88 112.51 286.11   C 111.50 280.98 112.49 275.89 111.50 270.74   C 110.68 266.43 111.54 262.13 110.53 257.94   C 109.42 253.42 110.44 248.75 109.51 244.17   C 108.58 239.64 109.53 235.24 108.52 230.80   C 107.51 226.29 108.56 221.81 107.67 217.27   Q 106.84 212.97 107.03 208.76   C 107.15 206.21 106.76 203.74 106.23 201.26   Q 105.91 199.74 106.02 198.22   Q 106.30 194.08 105.66 190.45   Q 104.96 186.52 105.07 183.20   Q 105.19 179.43 104.51 175.81   C 103.64 171.19 104.52 166.75 103.70 162.20   Q 103.15 159.18 104.06 156.45   Q 105.67 151.63 111.49 151.37   C 122.35 150.90 135.07 151.26 146.83 151.26   Q 217.32 151.24 287.10 151.11   Z"/>
<path fill="#94befe" d="   M 324.84 151.09   Q 326.50 153.08 327.07 155.81   L 298.90 156.08   Q 295.07 154.15 295.79 151.23   L 324.84 151.09   Z"/>
<path fill="#0998a8" d="   M 287.83 155.81   Q 290.83 160.88 296.68 164.70   Q 170.16 164.85 113.00 164.70   C 109.10 164.69 107.81 160.05 109.44 157.04   A 1.37 1.36 3.7 0 1 110.15 156.42   Q 111.69 155.84 113.25 155.84   Q 200.68 155.88 287.83 155.81   Z   M 118.49 160.24   A 2.04 2.04 0.0 0 0 116.45 158.20   A 2.04 2.04 0.0 0 0 114.41 160.24   A 2.04 2.04 0.0 0 0 116.45 162.28   A 2.04 2.04 0.0 0 0 118.49 160.24   Z   M 125.38 160.21   A 2.05 2.05 0.0 0 0 123.33 158.16   A 2.05 2.05 0.0 0 0 121.28 160.21   A 2.05 2.05 0.0 0 0 123.33 162.26   A 2.05 2.05 0.0 0 0 125.38 160.21   Z   M 132.22 160.25   A 2.05 2.05 0.0 0 0 130.17 158.20   A 2.05 2.05 0.0 0 0 128.12 160.25   A 2.05 2.05 0.0 0 0 130.17 162.30   A 2.05 2.05 0.0 0 0 132.22 160.25   Z"/>
<path fill="#0998a8" d="   M 327.07 155.81   Q 328.71 156.84 330.48 158.01   Q 331.76 158.86 331.98 159.88   Q 332.22 160.97 332.00 162.47   Q 331.64 163.62 329.01 164.60   Q 325.05 164.10 321.06 165.17   Q 316.06 162.84 311.68 162.92   Q 305.12 160.70 298.90 156.08   L 327.07 155.81   Z"/>
<circle fill="#ffffff" cx="116.45" cy="160.24" r="2.04"/>
<circle fill="#ffffff" cx="123.33" cy="160.21" r="2.05"/>
<circle fill="#ffffff" cx="130.17" cy="160.25" r="2.05"/>
<path fill="#1b2e35" d="   M 344.76 159.26   Q 346.49 158.74 348.28 159.47   A 1.05 1.03 -80.4 0 1 348.92 160.39   L 349.01 162.28   Q 349.04 162.77 349.38 163.13   Q 350.58 164.41 349.82 166.64   L 328.92 166.34   L 329.01 164.60   Q 331.64 163.62 332.00 162.47   Q 338.46 160.08 344.76 159.26   Z"/>
<path fill="#0998a8" d="   M 321.06 165.17   Q 324.13 166.58 324.99 166.83   Q 327.02 167.42 328.92 166.34   L 349.82 166.64   Q 353.64 167.60 355.01 167.00   Q 361.17 164.32 363.43 167.11   Q 363.48 171.73 365.22 176.53   Q 365.70 178.47 365.17 179.37   Q 362.92 183.22 357.96 187.90   C 356.65 189.14 356.18 191.06 356.08 192.78   C 355.93 195.48 355.16 198.38 355.04 200.75   Q 354.77 206.26 355.02 216.99   Q 353.61 216.64 352.59 216.94   Q 352.07 217.10 352.10 217.64   L 352.30 220.58   Q 351.77 220.11 351.06 220.28   Q 350.57 220.40 350.41 219.92   L 350.28 219.51   Q 350.41 218.07 350.02 217.39   Q 349.70 216.82 349.02 216.83   Q 339.50 216.91 330.56 216.88   A 0.96 0.95 -5.7 0 0 329.62 218.02   L 330.04 220.06   Q 328.99 220.03 328.46 220.34   Q 328.06 220.57 328.02 220.11   L 327.79 217.31   Q 324.95 216.83 323.25 216.87   Q 320.90 216.94 320.31 215.03   L 316.67 187.08   Q 316.57 186.25 316.02 185.60   L 310.30 178.79   A 1.25 1.25 0.0 0 1 310.01 177.82   L 310.46 173.99   Q 310.79 172.83 310.68 172.00   L 311.68 162.92   Q 316.06 162.84 321.06 165.17   Z"/>
<path fill="#94befe" d="   M 329.01 164.60   L 328.92 166.34   Q 327.02 167.42 324.99 166.83   Q 324.13 166.58 321.06 165.17   Q 325.05 164.10 329.01 164.60   Z"/>
<path fill="#ffffff" d="   M 310.46 173.99   L 310.01 177.82   A 1.25 1.25 0.0 0 0 310.30 178.79   L 316.02 185.60   Q 316.57 186.25 316.67 187.08   L 320.31 215.03   Q 319.82 218.09 320.36 220.91   Q 309.51 248.58 304.07 276.75   Q 301.84 288.34 302.11 300.67   Q 215.72 300.66 129.25 300.65   Q 125.64 300.65 124.73 298.19   Q 124.34 297.15 124.21 295.10   Q 120.02 232.78 115.78 177.26   Q 115.53 174.00 118.80 174.00   L 310.46 173.99   Z   M 205.31 201.89   A 0.56 0.56 0.0 0 0 204.75 202.49   L 208.54 254.78   A 0.56 0.56 0.0 0 0 209.10 255.30   L 246.50 255.34   A 0.56 0.56 0.0 0 0 247.06 254.74   L 243.71 208.44   A 0.56 0.56 0.0 0 0 243.44 208.00   L 233.44 201.96   A 0.56 0.56 0.0 0 0 233.15 201.88   L 205.31 201.89   Z   M 205.36 269.43   C 206.54 270.88 207.45 273.58 209.78 273.10   Q 210.35 272.98 210.31 272.39   L 209.89 265.87   Q 209.83 264.92 208.88 265.01   L 208.21 265.07   A 0.85 0.85 0.0 0 0 207.45 266.08   Q 207.68 267.25 207.61 268.31   Q 207.55 269.33 207.04 268.45   Q 206.16 266.95 204.94 265.85   Q 202.16 263.33 202.39 267.08   L 202.71 272.30   A 0.85 0.84 -1.4 0 0 203.55 273.09   L 204.49 273.09   A 0.56 0.56 0.0 0 0 205.05 272.50   L 204.92 269.60   Q 204.89 268.84 205.36 269.43   Z   M 218.5972 272.0088   A 4.35 4.06 42.5 0 0 218.1329 266.0767   A 4.35 4.06 42.5 0 0 212.1828 266.1312   A 4.35 4.06 42.5 0 0 212.6471 272.0633   A 4.35 4.06 42.5 0 0 218.5972 272.0088   Z   M 224.34 265.42   L 224.46 272.86   A 0.27 0.27 0.0 0 0 224.73 273.12   L 228.34 273.07   A 3.57 3.42 89.1 0 0 231.71 269.44   L 231.69 268.60   A 3.57 3.42 89.1 0 0 228.22 265.09   L 224.61 265.14   A 0.27 0.27 0.0 0 0 224.34 265.42   Z   M 237.61 272.33   Q 238.47 273.28 239.81 273.08   A 0.56 0.56 0.0 0 0 240.25 272.29   L 237.22 265.58   Q 236.96 265.00 236.32 265.03   L 234.85 265.09   Q 234.21 265.12 234.03 265.73   L 232.15 272.24   Q 231.97 272.90 232.63 273.04   Q 233.88 273.32 234.80 272.32   A 1.90 1.90 0.0 0 1 237.61 272.33   Z   M 241.90 267.81   L 242.34 272.27   Q 242.42 273.13 243.28 273.13   L 243.67 273.13   Q 244.84 273.12 244.76 271.96   L 244.49 268.00   A 0.84 0.84 0.0 0 1 245.46 267.12   Q 246.79 267.33 247.02 265.97   A 0.78 0.78 0.0 0 0 246.26 265.06   L 240.21 265.01   A 0.99 0.98 -18.6 0 0 239.42 266.59   Q 239.94 267.26 240.86 267.05   A 0.86 0.86 0.0 0 1 241.90 267.81   Z   M 248.71 266.45   C 248.34 268.31 247.59 270.27 247.00 272.04   A 0.87 0.87 0.0 0 0 248.07 273.15   Q 249.26 272.80 250.11 272.04   A 1.23 1.22 -63.6 0 1 251.02 271.73   C 252.51 271.81 253.11 273.31 254.61 273.03   Q 255.37 272.89 255.06 272.18   L 252.35 265.95   A 1.60 1.58 84.7 0 0 251.25 265.03   Q 249.09 264.53 248.71 266.45   Z"/>
<path fill="#0998a8" d="   M 205.31 201.89   L 233.15 201.88   A 0.56 0.56 0.0 0 1 233.44 201.96   L 243.44 208.00   A 0.56 0.56 0.0 0 1 243.71 208.44   L 247.06 254.74   A 0.56 0.56 0.0 0 1 246.50 255.34   L 209.10 255.30   A 0.56 0.56 0.0 0 1 208.54 254.78   L 204.75 202.49   A 0.56 0.56 0.0 0 1 205.31 201.89   Z   M 236.93 211.02   A 0.44 0.44 0.0 0 1 236.40 210.79   L 232.88 203.26   A 0.44 0.44 0.0 0 0 232.48 203.01   L 206.32 202.98   A 0.44 0.44 0.0 0 0 205.88 203.45   L 209.52 253.86   A 0.44 0.44 0.0 0 0 209.96 254.27   L 245.46 254.10   A 0.44 0.44 0.0 0 0 245.90 253.63   L 242.77 209.70   A 0.44 0.44 0.0 0 0 242.20 209.31   L 236.93 211.02   Z   M 241.21 208.50   A 0.31 0.31 0.0 0 0 241.27 207.94   L 235.08 204.30   A 0.31 0.31 0.0 0 0 234.64 204.70   L 236.98 209.59   A 0.31 0.31 0.0 0 0 237.36 209.76   L 241.21 208.50   Z"/>
<path fill="#ffffff" d="   M 236.93 211.02   L 242.20 209.31   A 0.44 0.44 0.0 0 1 242.77 209.70   L 245.90 253.63   A 0.44 0.44 0.0 0 1 245.46 254.10   L 209.96 254.27   A 0.44 0.44 0.0 0 1 209.52 253.86   L 205.88 203.45   A 0.44 0.44 0.0 0 1 206.32 202.98   L 232.48 203.01   A 0.44 0.44 0.0 0 1 232.88 203.26   L 236.40 210.79   A 0.44 0.44 0.0 0 0 236.93 211.02   Z   M 212.7941 221.7149   A 2.21 0.55 131.9 0 0 214.6794 220.4373   A 2.21 0.55 131.9 0 0 215.7459 218.4251   A 2.21 0.55 131.9 0 0 213.8606 219.7027   A 2.21 0.55 131.9 0 0 212.7941 221.7149   Z   M 238.0417 221.6827   A 2.33 0.59 43.8 0 0 236.7684 219.6442   A 2.33 0.59 43.8 0 0 234.6783 218.4573   A 2.33 0.59 43.8 0 0 235.9516 220.4958   A 2.33 0.59 43.8 0 0 238.0417 221.6827   Z   M 233.8971 227.8095   A 2.23 2.09 53.8 0 0 234.2665 224.7756   A 2.23 2.09 53.8 0 0 231.2629 224.2105   A 2.23 2.09 53.8 0 0 230.8935 227.2444   A 2.23 2.09 53.8 0 0 233.8971 227.8095   Z   M 220.5765 227.4900   A 2.27 2.11 39.7 0 0 220.1778 224.4166   A 2.27 2.11 39.7 0 0 217.0835 224.5900   A 2.27 2.11 39.7 0 0 217.4822 227.6634   A 2.27 2.11 39.7 0 0 220.5765 227.4900   Z   M 239.11 239.15   C 237.50 230.01 215.50 229.24 214.01 239.33   Q 213.99 239.50 214.14 239.58   L 214.40 239.70   Q 214.95 239.97 215.06 239.37   Q 215.81 235.53 220.04 234.19   C 225.57 232.45 236.18 232.59 238.30 239.53   Q 238.32 239.61 238.39 239.65   Q 238.52 239.74 238.68 239.72   A 0.49 0.48 82.3 0 0 239.11 239.15   Z"/>
<path fill="#ffffff" d="   M 241.21 208.50   L 237.36 209.76   A 0.31 0.31 0.0 0 1 236.98 209.59   L 234.64 204.70   A 0.31 0.31 0.0 0 1 235.08 204.30   L 241.27 207.94   A 0.31 0.31 0.0 0 1 241.21 208.50   Z"/>
<rect fill="#0998a8" x="-0.34" y="-5.76" transform="translate(104.47,212.58) rotate(-0.5)" width="0.68" height="11.52" rx="0.27"/>
<path fill="#94befe" d="   M 320.31 215.03   Q 320.90 216.94 323.25 216.87   Q 324.95 216.83 327.79 217.31   Q 327.97 218.88 327.65 220.08   Q 327.52 220.60 326.99 220.62   L 320.36 220.91   Q 319.82 218.09 320.31 215.03   Z"/>
<path fill="#94befe" d="   M 350.28 219.51   Q 350.53 220.74 349.75 220.73   Q 341.61 220.64 333.48 220.71   C 332.30 220.72 331.07 221.40 330.04 220.06   L 329.62 218.02   A 0.96 0.95 -5.7 0 1 330.56 216.88   Q 339.50 216.91 349.02 216.83   Q 349.70 216.82 350.02 217.39   Q 350.41 218.07 350.28 219.51   Z"/>
<path fill="#94befe" d="   M 355.02 216.99   Q 356.77 218.99 356.47 220.67   L 352.30 220.58   L 352.10 217.64   Q 352.07 217.10 352.59 216.94   Q 353.61 216.64 355.02 216.99   Z"/>
<path fill="#34454c" d="   M 327.79 217.31   L 328.02 220.11   Q 328.06 220.57 328.46 220.34   Q 328.99 220.03 330.04 220.06   C 331.07 221.40 332.30 220.72 333.48 220.71   Q 341.61 220.64 349.75 220.73   Q 350.53 220.74 350.28 219.51   L 350.41 219.92   Q 350.57 220.40 351.06 220.28   Q 351.77 220.11 352.30 220.58   L 356.47 220.67   Q 357.28 222.95 358.09 225.20   Q 358.94 227.57 359.06 229.86   Q 359.51 238.07 358.44 246.18   Q 358.00 249.49 357.87 252.66   C 357.74 255.51 356.96 258.25 357.00 261.14   C 357.06 267.37 356.22 273.79 356.27 279.99   Q 356.35 288.39 356.86 299.00   C 357.02 302.29 356.87 305.69 357.34 308.98   C 358.19 315.05 357.90 321.34 358.28 327.37   Q 358.82 335.67 358.91 344.25   Q 359.18 367.45 358.69 390.88   Q 356.32 390.94 354.89 391.99   Q 352.01 388.40 348.66 386.46   L 345.51 381.07   Q 346.89 380.94 347.86 379.57   Q 348.18 379.12 348.03 378.58   L 347.14 375.33   A 1.15 1.14 -19.6 0 0 345.57 374.59   L 333.83 379.84   Q 322.42 358.21 313.67 337.77   Q 309.23 327.42 304.92 314.99   Q 302.60 308.02 302.11 300.67   Q 301.84 288.34 304.07 276.75   Q 309.51 248.58 320.36 220.91   L 326.99 220.62   Q 327.52 220.60 327.65 220.08   Q 327.97 218.88 327.79 217.31   Z   M 342.67 366.30   Q 343.02 367.51 343.42 368.68   Q 343.45 368.74 343.51 368.73   L 343.76 368.65   Q 343.91 368.61 343.88 368.46   Q 343.18 364.92 342.99 361.81   C 342.86 359.60 342.12 357.52 342.06 355.33   C 341.98 352.43 341.19 349.82 341.00 346.90   Q 340.88 345.04 340.57 343.23   Q 339.61 337.55 339.02 331.67   C 338.81 329.61 338.13 327.77 338.06 325.81   C 337.97 323.09 337.02 320.66 337.00 317.91   Q 336.99 316.51 336.59 315.22   C 335.82 312.74 336.11 310.25 335.40 307.76   C 334.81 305.67 335.17 303.66 334.61 301.53   C 333.88 298.77 334.15 295.97 333.80 293.15   Q 332.97 286.49 332.75 279.94   Q 332.71 278.69 332.47 277.49   Q 331.91 274.75 331.20 277.45   Q 329.37 284.53 328.22 290.75   Q 327.80 293.00 327.24 300.24   C 327.06 302.66 327.63 304.83 327.92 307.17   Q 328.25 309.69 328.83 312.30   Q 334.89 339.53 342.67 366.30   Z"/>
<ellipse fill="#0998a8" cx="0.00" cy="0.00" transform="translate(214.27,220.07) rotate(131.9)" rx="2.21" ry="0.55"/>
<ellipse fill="#0998a8" cx="0.00" cy="0.00" transform="translate(236.36,220.07) rotate(43.8)" rx="2.33" ry="0.59"/>
<ellipse fill="#0998a8" cx="0.00" cy="0.00" transform="translate(232.58,226.01) rotate(53.8)" rx="2.23" ry="2.09"/>
<ellipse fill="#0998a8" cx="0.00" cy="0.00" transform="translate(218.83,226.04) rotate(39.7)" rx="2.27" ry="2.11"/>
<path fill="#0998a8" d="   M 214.01 239.33   C 215.50 229.24 237.50 230.01 239.11 239.15   A 0.49 0.48 82.3 0 1 238.68 239.72   Q 238.52 239.74 238.39 239.65   Q 238.32 239.61 238.30 239.53   C 236.18 232.59 225.57 232.45 220.04 234.19   Q 215.81 235.53 215.06 239.37   Q 214.95 239.97 214.40 239.70   L 214.14 239.58   Q 213.99 239.50 214.01 239.33   Z"/>
<path fill="#0998a8" d="   M 204.92 269.60   L 205.05 272.50   A 0.56 0.56 0.0 0 1 204.49 273.09   L 203.55 273.09   A 0.85 0.84 -1.4 0 1 202.71 272.30   L 202.39 267.08   Q 202.16 263.33 204.94 265.85   Q 206.16 266.95 207.04 268.45   Q 207.55 269.33 207.61 268.31   Q 207.68 267.25 207.45 266.08   A 0.85 0.85 0.0 0 1 208.21 265.07   L 208.88 265.01   Q 209.83 264.92 209.89 265.87   L 210.31 272.39   Q 210.35 272.98 209.78 273.10   C 207.45 273.58 206.54 270.88 205.36 269.43   Q 204.89 268.84 204.92 269.60   Z"/>
<path fill="#0998a8" d="   M 218.5972 272.0088   A 4.35 4.06 42.5 0 1 212.6471 272.0633   A 4.35 4.06 42.5 0 1 212.1828 266.1312   A 4.35 4.06 42.5 0 1 218.1329 266.0767   A 4.35 4.06 42.5 0 1 218.5972 272.0088   Z   M 215.7723 271.3137   A 2.25 1.63 79.7 0 0 216.9737 268.8086   A 2.25 1.63 79.7 0 0 214.9677 266.8863   A 2.25 1.63 79.7 0 0 213.7663 269.3914   A 2.25 1.63 79.7 0 0 215.7723 271.3137   Z"/>
<path fill="#0998a8" d="   M 224.34 265.42   A 0.27 0.27 0.0 0 1 224.61 265.14   L 228.22 265.09   A 3.57 3.42 89.1 0 1 231.69 268.60   L 231.71 269.44   A 3.57 3.42 89.1 0 1 228.34 273.07   L 224.73 273.12   A 0.27 0.27 0.0 0 1 224.46 272.86   L 224.34 265.42   Z   M 226.69 267.50   L 227.12 270.93   A 0.43 0.43 0.0 0 0 227.60 271.31   L 227.93 271.27   A 1.70 1.46 82.9 0 0 229.17 269.40   L 229.05 268.49   A 1.70 1.46 82.9 0 0 227.40 266.98   L 227.07 267.02   A 0.43 0.43 0.0 0 0 226.69 267.50   Z"/>
<path fill="#0998a8" d="   M 237.61 272.33   A 1.90 1.90 0.0 0 0 234.80 272.32   Q 233.88 273.32 232.63 273.04   Q 231.97 272.90 232.15 272.24   L 234.03 265.73   Q 234.21 265.12 234.85 265.09   L 236.32 265.03   Q 236.96 265.00 237.22 265.58   L 240.25 272.29   A 0.56 0.56 0.0 0 1 239.81 273.08   Q 238.47 273.28 237.61 272.33   Z   M 235.03 269.31   A 0.55 0.55 0.0 0 0 235.60 269.98   L 236.33 269.94   Q 237.21 269.89 236.70 269.18   L 235.94 268.10   Q 235.46 267.42 235.27 268.23   L 235.03 269.31   Z"/>
<path fill="#0998a8" d="   M 240.86 267.05   Q 239.94 267.26 239.42 266.59   A 0.99 0.98 -18.6 0 1 240.21 265.01   L 246.26 265.06   A 0.78 0.78 0.0 0 1 247.02 265.97   Q 246.79 267.33 245.46 267.12   A 0.84 0.84 0.0 0 0 244.49 268.00   L 244.76 271.96   Q 244.84 273.12 243.67 273.13   L 243.28 273.13   Q 242.42 273.13 242.34 272.27   L 241.90 267.81   A 0.86 0.86 0.0 0 0 240.86 267.05   Z"/>
<path fill="#0998a8" d="   M 248.71 266.45   Q 249.09 264.53 251.25 265.03   A 1.60 1.58 84.7 0 1 252.35 265.95   L 255.06 272.18   Q 255.37 272.89 254.61 273.03   C 253.11 273.31 252.51 271.81 251.02 271.73   A 1.23 1.22 -63.6 0 0 250.11 272.04   Q 249.26 272.80 248.07 273.15   A 0.87 0.87 0.0 0 1 247.00 272.04   C 247.59 270.27 248.34 268.31 248.71 266.45   Z   M 250.83 268.11   Q 250.47 267.84 250.30 268.25   Q 250.07 268.77 250.09 269.40   Q 250.11 270.09 250.80 270.01   Q 251.05 269.99 251.31 270.05   A 0.43 0.43 0.0 0 0 251.82 269.51   Q 251.57 268.67 250.83 268.11   Z"/>
<ellipse fill="#ffffff" cx="0.00" cy="0.00" transform="translate(215.37,269.10) rotate(79.7)" rx="2.25" ry="1.63"/>
<path fill="#ffffff" d="   M 226.69 267.50   A 0.43 0.43 0.0 0 1 227.07 267.02   L 227.40 266.98   A 1.70 1.46 82.9 0 1 229.05 268.49   L 229.17 269.40   A 1.70 1.46 82.9 0 1 227.93 271.27   L 227.60 271.31   A 0.43 0.43 0.0 0 1 227.12 270.93   L 226.69 267.50   Z"/>
<path fill="#94befe" d="   M 235.03 269.31   L 235.27 268.23   Q 235.46 267.42 235.94 268.10   L 236.70 269.18   Q 237.21 269.89 236.33 269.94   L 235.60 269.98   A 0.55 0.55 0.0 0 1 235.03 269.31   Z"/>
<path fill="#94befe" d="   M 250.83 268.11   Q 251.57 268.67 251.82 269.51   A 0.43 0.43 0.0 0 1 251.31 270.05   Q 251.05 269.99 250.80 270.01   Q 250.11 270.09 250.09 269.40   Q 250.07 268.77 250.30 268.25   Q 250.47 267.84 250.83 268.11   Z"/>
<path fill="#0998a8" d="   M 345.51 381.07   L 337.27 384.65   L 336.67 385.20   L 335.00 385.29   Q 333.50 383.00 333.17 382.02   Q 332.53 380.12 333.83 379.84   L 345.57 374.59   A 1.15 1.14 -19.6 0 1 347.14 375.33   L 348.03 378.58   Q 348.18 379.12 347.86 379.57   Q 346.89 380.94 345.51 381.07   Z"/>
<path fill="#feb776" d="   M 345.51 381.07   L 348.66 386.46   L 341.61 391.66   L 338.45 385.36   Q 338.22 384.90 337.73 384.77   L 337.27 384.65   L 345.51 381.07   Z"/>
<path fill="#ffffff" d="   M 337.27 384.65   L 337.73 384.77   Q 338.22 384.90 338.45 385.36   L 341.61 391.66   L 340.93 392.17   Q 339.19 391.62 337.72 390.51   L 336.39 386.21   Q 336.83 385.93 336.67 385.20   L 337.27 384.65   Z"/>
<path fill="#94befe" d="   M 335.00 385.29   L 336.67 385.20   Q 336.83 385.93 336.39 386.21   Q 335.58 386.06 335.00 385.29   Z"/>
<path fill="#1b2e35" d="   M 348.66 386.46   Q 352.01 388.40 354.89 391.99   Q 355.27 393.53 353.64 394.65   Q 352.12 395.69 350.72 396.98   Q 349.58 397.50 349.31 397.85   L 337.47 406.53   A 1.77 1.76 -46.3 0 1 335.46 406.58   L 334.93 406.23   Q 333.40 405.22 334.57 403.81   Q 337.33 400.51 339.02 397.26   Q 339.31 396.71 339.02 396.08   C 340.31 395.20 339.50 393.35 340.93 392.17   L 341.61 391.66   L 348.66 386.46   Z"/>
<path fill="#94befe" d="   M 337.72 390.51   Q 339.19 391.62 340.93 392.17   C 339.50 393.35 340.31 395.20 339.02 396.08   L 336.88 395.71   A 0.64 0.64 0.0 0 1 336.43 394.77   Q 336.72 394.23 337.32 394.14   A 0.92 0.92 0.0 0 1 338.11 394.40   Q 338.25 394.54 338.43 394.62   Q 339.03 394.89 338.66 394.35   C 338.32 393.84 337.68 393.63 337.32 393.03   Q 336.46 391.57 337.72 390.51   Z"/>
<path fill="#0998a8" d="   M 358.69 390.88   Q 359.07 391.61 360.44 391.58   Q 360.94 391.57 360.97 392.06   Q 361.29 397.33 356.92 396.88   L 350.72 396.98   Q 352.12 395.69 353.64 394.65   Q 355.27 393.53 354.89 391.99   Q 356.32 390.94 358.69 390.88   Z"/>
<path fill="#feb776" d="   M 350.72 396.98   L 356.92 396.88   L 357.23 406.65   L 348.35 406.68   L 349.31 397.85   Q 349.58 397.50 350.72 396.98   Z"/>
<path fill="#94befe" d="   M 347.00 406.52   Q 346.10 407.46 344.96 407.98   Q 344.99 407.59 344.88 407.42   Q 344.71 407.15 344.50 407.38   Q 344.21 407.68 343.85 407.87   A 0.50 0.50 0.0 0 1 343.19 407.70   Q 342.92 407.27 343.00 406.77   Q 343.10 406.12 343.76 406.21   Q 344.50 406.32 345.21 406.10   Q 345.55 406.00 345.50 405.64   Q 345.42 405.09 345.07 404.65   Q 344.71 404.20 345.28 404.16   L 345.88 404.11   A 0.72 0.69 -17.4 0 1 346.53 404.43   Q 347.07 405.27 347.00 406.52   Z"/>
<path fill="#1b2e35" d="   M 347.00 406.52   L 348.35 406.68   L 357.23 406.65   L 358.79 414.50   Q 359.09 416.00 357.57 416.00   L 338.01 416.01   Q 336.21 416.01 335.69 414.28   Q 335.57 413.87 335.75 413.43   Q 336.20 412.31 337.40 412.10   Q 342.74 411.18 344.96 407.98   Q 346.10 407.46 347.00 406.52   Z"/>
</svg>